<svg xmlns="http://www.w3.org/2000/svg" version="1.1" viewBox="-5.0 -10.0 110.0 135.0">
 <path d="m50 54.664c-2.4844 0-4.5078 2.0234-4.5078 4.5039 0 2.4844 2.0234 4.5078 4.5078 4.5078s4.5039-2.0234 4.5039-4.5078-2.0234-4.5039-4.5039-4.5039zm8.4805-2.5977c0.50391 0.50391 0.50391 1.3242 0 1.8281-0.50391 0.50391-1.3242 0.50391-1.8281 0-1.7773-1.7773-4.1406-2.7578-6.6523-2.7578s-4.875 0.97656-6.6523 2.7578c-0.25391 0.25391-0.58594 0.37891-0.91406 0.37891-0.33203 0-0.66016-0.125-0.91406-0.37891-0.50781-0.50781-0.50781-1.3242 0-1.8281 2.2656-2.2656 5.2773-3.5117 8.4805-3.5117s6.2148 1.2461 8.4805 3.5156zm4.3242-4.3242c-3.4219-3.4219-7.9688-5.3047-12.805-5.3047s-9.3828 1.8828-12.805 5.3047c-0.50391 0.50391-0.50391 1.3242 0 1.8281 0.25391 0.25391 0.58203 0.37891 0.91406 0.37891s0.66016-0.125 0.91406-0.37891c2.9297-2.9297 6.8281-4.5469 10.977-4.5469 4.1445 0 8.043 1.6133 10.973 4.5469 0.50781 0.50391 1.3242 0.50391 1.8281 0 0.50391-0.50781 0.50391-1.3242 0-1.8281zm4.3203-4.3242c0.50391 0.50391 0.50391 1.3242 0 1.8281-0.25391 0.25391-0.58594 0.37891-0.91406 0.37891-0.33203 0-0.66016-0.125-0.91406-0.37891-8.4336-8.4336-22.16-8.4336-30.598 0-0.50391 0.50781-1.3242 0.50781-1.8281 0-0.50391-0.50391-0.50391-1.3242 0-1.8281 9.4453-9.4453 24.809-9.4414 34.254 0zm22.793-16.172v-2.5859h-8.5898v-4.6953c0-0.71484-0.57812-1.293-1.293-1.293h-4.6953v-8.5898h-2.5859v8.5898h-9.4375v-8.5898h-2.5859v8.5898h-9.4375v-8.5898h-2.5859v8.5898h-9.4375v-8.5898h-2.5859v8.5898h-9.4375v-8.5898h-2.5859v8.5898h-4.6953c-0.71484 0-1.293 0.57812-1.293 1.293v4.6953h-8.5898v2.5859h8.5898v9.4375h-8.5898v2.5859h8.5898v9.4375h-8.5898v2.5859h8.5898v9.4375h-8.5898v2.5859h8.5898v9.4375h-8.5898v2.5859h8.5898v4.6953c0 0.71484 0.57812 1.293 1.293 1.293h4.6953v8.5898h2.5859v-8.5898h9.4375v8.5898h2.5859v-8.5898h9.4375v8.5898h2.5859v-8.5898h9.4375v8.5898h2.5859v-8.5898h9.4375v8.5898h2.5859v-8.5898h4.6953c0.71484 0 1.293-0.57812 1.293-1.293v-4.6953h8.5898v-2.5859h-8.5898v-9.4375h8.5898v-2.5859h-8.5898v-9.4375h8.5898v-2.5859h-8.5898v-9.4375h8.5898v-2.5859h-8.5898v-9.4375zm-64.809-0.66406c-0.8125 0-1.4727-0.66016-1.4727-1.4727 0-0.81641 0.66016-1.4727 1.4727-1.4727s1.4727 0.66016 1.4727 1.4727-0.66016 1.4727-1.4727 1.4727zm47.492 46.02h-45.203v-38.129l7.0742-7.0781h38.129z" fill-rule="evenodd"/>
<text x="0.0" y="117.5" font-size="5.0" font-weight="bold" font-family="Arbeit Regular, Helvetica, Arial-Unicode, Arial, Sans-serif" fill="#000000">Created by MUHAMMAT SUKIRMAN</text><text x="0.0" y="122.5" font-size="5.0" font-weight="bold" font-family="Arbeit Regular, Helvetica, Arial-Unicode, Arial, Sans-serif" fill="#000000">from Noun Project</text></svg>